<svg width="56" height="20" viewBox="0 0 56 20" fill="none" xmlns="http://www.w3.org/2000/svg">
<path fill-rule="evenodd" clip-rule="evenodd" d="M51.1926 12.3077C50.9737 12.7651 50.7002 13.1878 50.3651 13.569C50.03 13.9501 49.6539 14.2758 49.2231 14.5461C48.7991 14.8164 48.3409 15.0243 47.8623 15.1698C47.3767 15.3084 46.8844 15.3846 46.3852 15.3846C43.4446 15.3846 41.0648 12.973 41.0648 10C41.0648 7.02703 43.4446 4.61538 46.3852 4.61538C46.8912 4.61538 47.3836 4.68468 47.8623 4.83021C48.3478 4.96881 48.7991 5.17671 49.2231 5.45392C49.6471 5.72419 50.03 6.0499 50.3651 6.43798C50.7002 6.81913 50.9737 7.24186 51.1926 7.69924H56C54.9674 3.27789 51.0558 0 46.3783 0C40.9212 0 36.4968 4.47678 36.4968 10C36.4968 15.5232 40.9212 20 46.3783 20C51.049 20 54.9674 16.7221 56 12.3077H51.1926ZM14.6958 12.3077C14.477 12.7651 14.2034 13.1878 13.8684 13.569C13.5333 13.9501 13.1572 14.2758 12.7263 14.5461C12.3024 14.8164 11.8442 15.0243 11.3655 15.1698C10.8868 15.3153 10.3876 15.3846 9.88839 15.3846C6.94786 15.3846 4.56808 12.973 4.56808 10C4.56808 7.02703 6.94786 4.61538 9.88839 4.61538C10.3944 4.61538 10.8868 4.68468 11.3655 4.83021C11.851 4.96881 12.3024 5.17671 12.7263 5.45392C13.1503 5.72419 13.5333 6.0499 13.8684 6.43798C14.2034 6.81913 14.477 7.24186 14.6958 7.69924H19.5032C18.4706 3.27789 14.559 0 9.88155 0C4.42447 0 0 4.47678 0 10C0 15.5232 4.42447 20 9.88155 20C14.5522 20 18.4706 16.7221 19.5032 12.3077H14.6958ZM21.2881 0V4.61538H25.8493V19.9931H30.4106V4.61538H34.9718V0H21.2881Z" fill="white"/>
</svg>
