<svg width="90" height="21" viewBox="0 0 90 21" fill="none" xmlns="http://www.w3.org/2000/svg">
<path d="M28.101 3.12056C27.7729 1.88834 26.7968 0.920164 25.5646 0.592105C23.3242 0 14.3546 0 14.3546 0C14.3546 0 5.37696 0 3.13656 0.600107C1.90434 0.928165 0.928165 1.89634 0.600107 3.12056C0 5.35295 0 10.0018 0 10.0018C0 10.0018 0 14.6506 0.600107 16.883C0.928165 18.1152 1.90434 19.0834 3.13656 19.4115C5.37696 20.0036 14.3546 20.0036 14.3546 20.0036C14.3546 20.0036 23.3322 20.0036 25.5646 19.4035C26.7968 19.0754 27.7729 18.1072 28.101 16.875C28.7011 14.6506 28.7011 9.99378 28.7011 9.99378C28.7011 9.99378 28.7011 5.35295 28.101 3.12056Z" fill="white"/>
<path d="M11.482 14.2904L18.9314 10.0017L11.482 5.71289V14.2904Z" fill="#E20F66"/>
<path d="M34.7662 13.0023L31.5417 1.41626H34.3502L35.4784 6.66519C35.7664 7.96143 35.9744 9.06562 36.1105 9.97778H36.1905C36.2865 9.32167 36.4945 8.22547 36.8226 6.6892L37.9908 1.41626H40.7993L37.5347 13.0023V18.5633H34.7422L34.7662 13.0023Z" fill="white"/>
<path d="M44.84 16.2349C44.992 15.8268 45.08 15.1627 45.08 14.2345V10.3298C45.08 9.43367 45 8.76955 44.84 8.36148C44.6799 7.94541 44.4079 7.73737 44.0078 7.73737C43.6238 7.73737 43.3517 7.94541 43.1997 8.36148C43.0396 8.77755 42.9596 9.43367 42.9596 10.3298V14.2345C42.9596 15.1627 43.0316 15.8268 43.1837 16.2349C43.3357 16.643 43.6077 16.851 43.9998 16.851C44.4079 16.851 44.6799 16.643 44.84 16.2349ZM41.6634 18.1952C41.0953 17.8112 40.6952 17.2191 40.4552 16.4189C40.2151 15.6108 40.0951 14.5466 40.0951 13.2103V11.394C40.0951 10.0498 40.2311 8.96159 40.5032 8.14544C40.7752 7.3293 41.2073 6.72919 41.7834 6.36112C42.3675 5.98506 43.1277 5.80103 44.0718 5.80103C45 5.80103 45.7441 5.99306 46.3122 6.36913C46.8723 6.75319 47.2804 7.3453 47.5444 8.15344C47.8005 8.96159 47.9365 10.0418 47.9365 11.394V13.2103C47.9365 14.5466 47.8085 15.6188 47.5525 16.4269C47.2964 17.2351 46.8883 17.8352 46.3202 18.2032C45.7521 18.5793 44.984 18.7633 44.0158 18.7633C43.0076 18.7713 42.2315 18.5793 41.6634 18.1952Z" fill="white"/>
<path d="M57.0741 18.5633H54.8577L54.6097 17.027H54.5457C53.9456 18.1872 53.0414 18.7633 51.8332 18.7633C51.001 18.7633 50.3849 18.4913 49.9849 17.9472C49.5848 17.4031 49.3928 16.547 49.3928 15.3947V6.04108H52.2253V15.2347C52.2253 15.7948 52.2893 16.1949 52.4093 16.4269C52.5293 16.667 52.7374 16.787 53.0254 16.787C53.2734 16.787 53.5055 16.715 53.7375 16.563C53.9616 16.4109 54.1296 16.2189 54.2416 15.9949V6.03308H57.0741V18.5633Z" fill="white"/>
<path d="M64.7715 3.68872H61.963V18.5634H59.1865V3.68872H56.378V1.42432H64.7715V3.68872Z" fill="white"/>
<path d="M71.6048 18.5633H69.3884L69.1403 17.027H69.0763C68.4762 18.1872 67.5721 18.7633 66.3638 18.7633C65.5317 18.7633 64.9156 18.4913 64.5155 17.9472C64.1154 17.4031 63.9234 16.547 63.9234 15.3947V6.04108H66.7559V15.2347C66.7559 15.7948 66.8199 16.1949 66.9399 16.4269C67.06 16.667 67.268 16.787 67.556 16.787C67.8041 16.787 68.0361 16.715 68.2682 16.563C68.4922 16.4109 68.6602 16.2189 68.7723 15.9949V6.03308H71.6048V18.5633V18.5633Z" fill="white"/>
<path d="M78.382 13.1544C78.382 14.0665 78.3419 14.7787 78.2699 15.2988C78.1979 15.8189 78.0699 16.1869 77.8859 16.403C77.7098 16.619 77.4698 16.731 77.1657 16.731C76.9337 16.731 76.7177 16.675 76.5176 16.563C76.3176 16.451 76.1576 16.2909 76.0375 16.0749V8.96163C76.1336 8.61757 76.2936 8.34553 76.5336 8.12149C76.7657 7.90545 77.0217 7.79343 77.2938 7.79343C77.5818 7.79343 77.8058 7.90545 77.9579 8.12949C78.1179 8.35353 78.2219 8.72959 78.2859 9.26569C78.3499 9.79378 78.382 10.5539 78.382 11.5301V13.1544ZM80.9824 8.04147C80.8064 7.24933 80.5343 6.68123 80.1503 6.32117C79.7662 5.9691 79.2381 5.79307 78.566 5.79307C78.0459 5.79307 77.5578 5.9371 77.1097 6.23315C76.6616 6.5292 76.3096 6.91327 76.0615 7.38535H76.0375V0.78418H73.3091V18.5633H75.6455L75.9335 17.3791H75.9975C76.2136 17.8032 76.5496 18.1313 76.9817 18.3793C77.4218 18.6274 77.9019 18.7474 78.438 18.7474C79.3981 18.7474 80.1023 18.3073 80.5503 17.4271C80.9984 16.547 81.2305 15.1787 81.2305 13.3064V11.3221C81.2385 9.92981 81.1504 8.83361 80.9824 8.04147Z" fill="white"/>
<path d="M85.6152 7.96941C85.4712 8.14544 85.3752 8.43349 85.3272 8.83357C85.2792 9.23364 85.2552 9.84174 85.2552 10.6659V11.5621H87.3275V10.6659C87.3275 9.85775 87.2955 9.24964 87.2475 8.83357C87.1995 8.41749 87.0955 8.12944 86.9515 7.95341C86.8074 7.78538 86.5834 7.69736 86.2873 7.69736C85.9833 7.70536 85.7592 7.79338 85.6152 7.96941ZM85.2552 13.8745C85.2552 14.6826 85.2792 15.2827 85.3272 15.6828C85.3752 16.0829 85.4712 16.3789 85.6232 16.5629C85.7753 16.747 86.0073 16.835 86.3193 16.835C86.7434 16.835 87.0315 16.667 87.1915 16.3469C87.3515 16.0188 87.4315 15.4747 87.4476 14.7146L89.888 14.8586C89.904 14.9707 89.912 15.1147 89.912 15.3067C89.912 16.4669 89.5919 17.3311 88.9598 17.8992C88.3277 18.4673 87.4235 18.7553 86.2633 18.7553C84.8631 18.7553 83.8869 18.3233 83.3268 17.4511C82.7667 16.5789 82.4867 15.2267 82.4867 13.4024V11.218C82.4867 9.33766 82.7747 7.96141 83.3588 7.09726C83.9429 6.2331 84.9351 5.80103 86.3434 5.80103C87.3115 5.80103 88.0637 5.97706 88.5838 6.32912C89.1038 6.68118 89.4719 7.23328 89.6799 7.98541C89.896 8.73755 90 9.76973 90 11.09V13.2343H85.2552V13.8745V13.8745Z" fill="white"/>
</svg>
